<?xml version="1.0" standalone="no"?>
<!DOCTYPE svg PUBLIC "-//W3C//DTD SVG 20010904//EN"
 "http://www.w3.org/TR/2001/REC-SVG-20010904/DTD/svg10.dtd">
<svg version="1.0" xmlns="http://www.w3.org/2000/svg"
 width="16.000000pt" height="16.000000pt" viewBox="0 0 16.000000 16.000000"
 preserveAspectRatio="xMidYMid meet">
<metadata>
Created by potrace 1.11, written by Peter Selinger 2001-2013
</metadata>
<g transform="translate(0.000000,16.000000) scale(0.006154,-0.006154)"
fill="#000000" stroke="none">
<path d="M81 2582 c-19 -9 -44 -30 -55 -45 -21 -28 -21 -33 -24 -1225 -2
-1125 -1 -1199 15 -1231 10 -19 31 -44 46 -55 28 -21 39 -21 678 -24 l649 -2
0 505 0 505 -170 0 -170 0 0 195 0 195 169 0 169 0 4 213 c4 187 7 220 27 276
59 168 174 269 349 307 74 15 152 17 320 7 l112 -6 0 -177 0 -178 -147 -3
c-167 -5 -200 -16 -237 -79 -18 -30 -21 -57 -24 -197 l-4 -163 196 0 c150 0
196 -3 196 -12 0 -18 -40 -329 -46 -355 -4 -23 -6 -23 -174 -23 l-170 0 0
-505 0 -506 359 3 c346 3 361 4 388 24 15 11 36 36 46 55 16 32 17 106 15
1231 -3 1192 -3 1197 -24 1225 -11 15 -36 36 -55 45 -32 17 -111 18 -1219 18
-1108 0 -1187 -1 -1219 -18z"/>
</g>
</svg>
